<?xml version="1.0" encoding="UTF-8" standalone="no"?>
<!DOCTYPE svg PUBLIC "-//W3C//DTD SVG 1.1//EN" "http://www.w3.org/Graphics/SVG/1.1/DTD/svg11.dtd">

<!-- Created with Vectornator (http://vectornator.io/) -->
<svg height="100%" stroke-miterlimit="10" style="fill-rule:nonzero;clip-rule:evenodd;stroke-linecap:round;stroke-linejoin:round;" version="1.1" viewBox="0 0 260 220" width="100%" xml:space="preserve"
  xmlns="http://www.w3.org/2000/svg"
  xmlns:vectornator="http://vectornator.io"
  xmlns:xlink="http://www.w3.org/1999/xlink">
  <metadata>
    <vectornator:setting key="IsTimeLapseWatermarkDisabled" value="false"/>
    <vectornator:setting key="UndoHistoryDisabled" value="true"/>
    <vectornator:setting key="VNDimensionsVisible" value="true"/>
    <vectornator:setting key="VNSnapToGuides" value="true"/>
    <vectornator:setting key="WDCMYKEnabledKey" value="false"/>
    <vectornator:setting key="WDDisplayWhiteBackground" value="false"/>
    <vectornator:setting key="WDDynamicGuides" value="false"/>
    <vectornator:setting key="WDGuidesVisible" value="true"/>
    <vectornator:setting key="WDIsolateActiveLayer" value="false"/>
    <vectornator:setting key="WDOutlineMode" value="false"/>
    <vectornator:setting key="WDRulersVisible" value="true"/>
    <vectornator:setting key="WDSnapToEdges" value="false"/>
    <vectornator:setting key="WDSnapToGrid" value="false"/>
    <vectornator:setting key="WDSnapToPoints" value="false"/>
    <vectornator:setting key="WDUnits" value="Points"/>
  </metadata>
  <defs/>
  <g id="Untitled" vectornator:layerName="Untitled">
    <g opacity="1">
      <path d="M114.031 104.884C111.527 119.192 75.3794 121.114 68.9994 110.723C66.6324 106.872 65.9534 98.3893 66.8974 93.8033C67.9844 88.5323 72.3394 85.5153 74.6694 80.8763C77.2074 75.8233 79.2814 60.6255 85.1574 58.4551C87.5064 57.587 90.8834 58.6409 93.1914 59.1484C100.302 60.7339 106.806 65.2673 105.61 73.6283C105.278 75.9373 103.654 78.3753 104.311 80.7183C105.271 84.1613 111.228 84.2763 113.272 86.8563C114.915 88.9283 114.583 101.733 114.031 104.884Z" fill="#000000" fill-rule="evenodd" opacity="1" stroke="#000000" stroke-linecap="round" stroke-linejoin="round" stroke-width="5"/>
      <path d="M170.319 83.8563C170.597 89.3733 146.288 88.4173 141.634 87.2213C136.446 85.8903 132.645 78.5513 129.823 74.8063C118.933 60.3494 115.415 48.9366 130.399 35.5605C135.131 31.3383 145.508 27.4572 150.593 33.286C157.824 41.5712 140.675 46.7623 147.952 59.53C150.828 64.5763 156.578 59.4089 160.88 60.5988C161.048 60.6427 170.266 82.7893 170.319 83.8563Z" fill="#000000" fill-rule="evenodd" opacity="1" stroke="#000000" stroke-linecap="round" stroke-linejoin="round" stroke-width="5"/>
      <path d="M170.195 150.16C163.8 157.061 151.693 149.104 146.748 142.969C139.617 134.127 140.05 116.441 145.151 106.477C149.746 97.5013 173.417 96.9713 180.853 101.034C184.895 103.248 187.805 107.453 189.091 111.862C195.026 132.244 180.646 138.882 170.195 150.16Z" fill="#000000" fill-rule="evenodd" opacity="1" stroke="#000000" stroke-linecap="round" stroke-linejoin="round" stroke-width="5"/>
      <path d="M196.916 77.5743C190.365 78.3513 179.77 64.8583 186.199 58.4721C187.89 56.7969 189.948 55.6657 191.119 53.4845C192.161 51.545 191.171 47.2965 192.994 46.1915C204.151 39.4066 215.053 56.9354 214.863 66.1093C214.699 73.9353 202.713 76.8863 196.916 77.5743Z" fill="#000000" fill-rule="evenodd" opacity="1" stroke="#000000" stroke-linecap="round" stroke-linejoin="round" stroke-width="5"/>
      <path d="M227.073 109.254C222.537 113.286 213.791 111.464 208.305 110.351C196.761 108.018 193.618 105.381 196.737 93.7403C197.394 91.2873 197.777 88.1733 199.904 86.4213C206.454 81.0283 211.236 86.3293 217.943 88.1263C222.648 89.3873 227.017 86.6873 231.729 89.9973C233.379 91.1543 228.587 107.909 227.073 109.254Z" fill="#000000" fill-rule="evenodd" opacity="1" stroke="#000000" stroke-linecap="round" stroke-linejoin="round" stroke-width="5"/>
      <path d="M225.614 156.976C222.051 165.38 200.469 160.601 194.627 155.076C190.069 150.764 194.77 133.27 197.277 129.006C201.654 121.557 216.876 117.864 221.998 125.833C225.937 131.965 219.588 135.907 220.651 141.277C222.59 151.111 230.578 145.27 225.614 156.976Z" fill="#000000" fill-rule="evenodd" opacity="1" stroke="#000000" stroke-linecap="round" stroke-linejoin="round" stroke-width="5"/>
      <path d="M127.379 132.687C123.6 138.397 108.94 128.543 110.879 124.982C119.557 109.044 119.556 122.169 125.374 126.551C126.782 127.613 131.612 127.039 132.414 128.444C134.996 132.955 128.546 130.921 127.38 132.686L127.379 132.687Z" fill="#000000" fill-rule="evenodd" opacity="1" stroke="#000000" stroke-linecap="round" stroke-linejoin="round" stroke-width="5"/>
      <path d="M98.5384 47.7649C95.3864 53.1381 87.7614 43.4253 90.5834 39.074C93.3914 34.7424 107.454 29.2624 106.542 38.2502C105.94 44.1951 100.92 43.7062 98.5384 47.7649Z" fill="#000000" fill-rule="evenodd" opacity="1" stroke="#000000" stroke-linecap="round" stroke-linejoin="round" stroke-width="5"/>
      <path d="M233.124 79.7273C230.913 79.3283 230.87 75.0663 230.01 72.9973C229.19 71.0353 227.351 72.2543 226.605 70.1493C225.084 65.8543 227.878 59.5814 232.356 59.0626C240.021 58.1755 246.153 72.6533 239.609 79.3053C237.053 81.9053 233.743 79.8413 233.124 79.7273Z" fill="#000000" fill-rule="evenodd" opacity="1" stroke="#000000" stroke-linecap="round" stroke-linejoin="round" stroke-width="5"/>
      <path d="M49.9694 57.9523C38.895 61.0454 35.8513 47.4251 42.9751 41.2771C49.4204 35.7163 57.4734 50.4937 61.3534 53.0809C64.1984 54.9834 67.5004 51.7871 69.7194 53.2678C70.6724 53.9038 70.8054 57.5281 70.7404 58.471C70.1524 67.1503 57.1074 56.6709 54.9554 56.9283C53.1274 57.1457 51.8954 57.4111 49.9694 57.9523Z" fill="#000000" fill-rule="evenodd" opacity="1" stroke="#000000" stroke-linecap="round" stroke-linejoin="round" stroke-width="5"/>
      <path d="M26.8448 82.9793C26.8448 82.9793 27.1705 85.1943 28.0497 85.4293C28.9287 85.6653 30.3181 83.9103 30.3181 83.9103L53.4444 89.6413L64.1814 108.24L40.8258 121.725C40.8258 121.725 40.8573 123.231 41.218 123.858C41.5791 124.483 42.8686 125.264 42.8686 125.264L66.2174 111.81L76.9634 130.378L223.391 169.147C223.391 169.147 223.716 171.362 224.596 171.597C225.475 171.833 226.864 170.078 226.864 170.078L256.844 58.1897C256.844 58.1897 256.519 55.9752 255.64 55.7396C254.76 55.504 253.371 57.259 253.371 57.259L107.176 17.6203L88.5864 28.3273L75.0934 5C75.0934 5 73.5864 5.0312 72.9604 5.3922C72.3344 5.754 71.5544 7.0457 71.5544 7.0457L85.0394 30.3996L66.4404 41.1373L43.5467 34.5402C43.5467 34.5402 43.2209 32.3257 42.3419 32.0902C41.4627 31.8546 40.0734 33.6095 40.0734 33.6095L26.8448 82.9793Z" fill="none" fill-rule="evenodd" opacity="1" stroke="#000000" stroke-linecap="round" stroke-linejoin="round" stroke-width="5"/>
    </g>
    <path d="M5 73.0123L23.4 73.0123" fill="none" fill-rule="evenodd" opacity="1" stroke="#000000" stroke-linecap="butt" stroke-linejoin="miter" stroke-width="5"/>
    <path d="M201.736 194.622L56.1364 194.622" fill="none" fill-rule="evenodd" opacity="1" stroke="#000000" stroke-linecap="butt" stroke-linejoin="miter" stroke-width="5"/>
  </g>
  <g id="Untitled_2" vectornator:layerName="Untitled">
    <g opacity="1">
      <path d="M50.4184 173.847L23.4 73.0123" fill="none" fill-rule="evenodd" opacity="1" stroke="#000000" stroke-linecap="butt" stroke-linejoin="miter" stroke-width="5"/>
      <path d="M227.082 172.498L50.4184 173.847" fill="none" fill-rule="evenodd" opacity="1" stroke="#000000" stroke-linecap="butt" stroke-linejoin="miter" stroke-width="5"/>
      <path d="M248.916 91.0123L59.2724 91.0123" fill="none" fill-rule="evenodd" opacity="1" stroke="#000000" stroke-linecap="butt" stroke-linejoin="miter" stroke-width="5"/>
      <path d="M50.4184 173.847L56.1364 194.622" fill="none" fill-rule="evenodd" opacity="1" stroke="#000000" stroke-linecap="butt" stroke-linejoin="miter" stroke-width="5"/>
      <path d="M56.1364 194.622L221.8 194.612" fill="none" fill-rule="evenodd" opacity="1" stroke="#000000" stroke-linecap="butt" stroke-linejoin="miter" stroke-width="5"/>
      <path d="M227.082 172.498L248.916 91.0123" fill="none" fill-rule="evenodd" opacity="1" stroke="#000000" stroke-linecap="butt" stroke-linejoin="miter" stroke-width="5"/>
      <path d="M23.4 73.0123L5 73.0123" fill="none" fill-rule="evenodd" opacity="1" stroke="#000000" stroke-linecap="butt" stroke-linejoin="miter" stroke-width="5"/>
    </g>
    <path d="M211.026 206.752C211.026 202.334 214.608 198.752 219.026 198.752C223.444 198.752 227.026 202.334 227.026 206.752C227.026 211.17 223.444 214.752 219.026 214.752C214.608 214.752 211.026 211.17 211.026 206.752Z" fill="#ffffff" fill-rule="evenodd" opacity="1" stroke="#000000" stroke-linecap="butt" stroke-linejoin="miter" stroke-width="5"/>
    <path d="M51.1914 206.752C51.1914 202.334 54.7734 198.752 59.1914 198.752C63.6094 198.752 67.1914 202.334 67.1914 206.752C67.1914 211.17 63.6094 214.752 59.1914 214.752C54.7734 214.752 51.1914 211.17 51.1914 206.752Z" fill="#ffffff" fill-rule="evenodd" opacity="1" stroke="#000000" stroke-linecap="butt" stroke-linejoin="miter" stroke-width="5"/>
  </g>
</svg>
